<?xml version="1.0" standalone="no"?>
<!DOCTYPE svg PUBLIC "-//W3C//DTD SVG 20010904//EN"
 "http://www.w3.org/TR/2001/REC-SVG-20010904/DTD/svg10.dtd">
<svg version="1.0" xmlns="http://www.w3.org/2000/svg"
 width="395.000000pt" height="395.000000pt" viewBox="0 0 395.000000 395.000000"
 preserveAspectRatio="xMidYMid meet">
<metadata>
Created by potrace 1.11, written by Peter Selinger 2001-2013
</metadata>
<g transform="translate(0.000000,395.000000) scale(0.100000,-0.100000)"
fill="#000000" stroke="none">
<path d="M1746 3929 c-799 -103 -1441 -664 -1641 -1435 -133 -512 -46 -1068
238 -1521 l52 -83 62 0 c35 0 63 2 63 4 0 2 -28 46 -63 98 -283 424 -378 969
-253 1462 133 522 490 963 971 1196 289 140 644 208 940 181 542 -52 995 -298
1318 -718 360 -468 466 -1117 277 -1684 -53 -161 -167 -383 -251 -490 -16 -20
-29 -40 -29 -43 0 -3 29 -6 64 -6 l63 0 38 57 c60 90 150 268 189 376 79 211
113 384 122 612 23 537 -177 1051 -556 1434 -301 305 -685 496 -1118 555 -122
17 -371 19 -486 5z"/>
<path d="M2174 2925 c-7 -19 -14 -38 -14 -42 0 -4 -5 -25 -10 -45 -9 -30 -16
-38 -43 -43 -57 -12 -171 -73 -224 -120 -28 -25 -72 -77 -98 -114 -88 -134
-129 -266 -185 -599 -45 -270 -75 -332 -159 -332 -33 0 -39 -4 -55 -37 -22
-46 -23 -141 -1 -182 31 -62 23 -61 591 -61 l517 0 -5 84 c-7 103 -33 165
-117 277 -86 113 -94 158 -55 281 17 52 7 47 151 69 l83 13 40 -44 c36 -39 42
-42 76 -37 73 12 121 88 111 174 -6 56 -28 87 -101 138 -74 53 -223 216 -248
273 -16 35 -19 56 -13 98 5 45 3 56 -14 73 -12 12 -41 26 -64 33 -37 9 -48 19
-69 57 -14 25 -31 63 -38 84 -15 46 -37 48 -56 2z"/>
<path d="M1396 1277 c-47 -61 -47 -181 0 -237 l26 -30 552 0 553 0 21 23 c29
31 42 70 42 127 0 57 -13 96 -42 128 l-21 22 -553 0 -553 0 -25 -33z"/>
<path d="M1400 942 c-52 -52 -53 -186 -2 -243 l27 -30 549 0 c515 0 549 1 568
18 66 58 64 220 -3 267 -21 14 -81 16 -567 16 l-544 0 -28 -28z"/>
<path d="M400 828 c0 -3 29 -150 65 -325 36 -175 74 -356 83 -403 l18 -85 697
-3 697 -2 0 310 0 310 -170 0 -170 0 0 -171 c0 -199 -8 -236 -61 -284 -108
-97 -199 -31 -283 206 l-33 92 -23 -74 c-41 -136 -99 -218 -167 -235 -64 -16
-159 32 -248 127 -83 88 -115 143 -199 340 l-37 85 -48 13 c-47 12 -85 42
-109 86 -6 11 -12 17 -12 13z"/>
<path d="M3530 796 c-17 -33 -63 -62 -111 -71 -34 -6 -38 -11 -69 -88 -87
-216 -180 -352 -290 -426 -152 -101 -255 -44 -324 179 -10 30 -20 62 -23 70
-2 8 -15 -16 -27 -55 -81 -252 -188 -333 -299 -227 -45 43 -57 105 -57 289 l0
163 -165 0 c-91 0 -165 -3 -165 -7 0 -5 -1 -144 -3 -311 l-2 -302 696 0 696 0
32 158 c17 86 54 265 82 396 27 132 48 244 46 249 -1 5 -9 -3 -17 -17z"/>
</g>
</svg>
