<?xml version="1.0" standalone="no"?>
<!DOCTYPE svg PUBLIC "-//W3C//DTD SVG 20010904//EN"
 "http://www.w3.org/TR/2001/REC-SVG-20010904/DTD/svg10.dtd">
<svg version="1.0" xmlns="http://www.w3.org/2000/svg"
 width="1785.000000pt" height="1785.000000pt" viewBox="0 0 1785.000000 1785.000000"
 preserveAspectRatio="xMidYMid meet">
<metadata>
Created by potrace 1.11, written by Peter Selinger 2001-2013
</metadata>
<g transform="translate(0.000000,1785.000000) scale(0.100000,-0.100000)"
fill="#000000" stroke="none">
<path d="M9810 14722 c-77 -24 -148 -196 -256 -620 -30 -119 -59 -226 -63
-238 -7 -16 -27 -25 -83 -39 -356 -86 -749 -255 -1038 -448 -663 -443 -1132
-1118 -1448 -2087 -163 -498 -276 -1019 -417 -1915 -68 -435 -113 -703 -146
-875 -139 -714 -310 -1043 -588 -1131 -54 -17 -89 -21 -196 -19 -71 1 -143 2
-159 3 -26 2 -33 -6 -77 -82 -135 -234 -196 -504 -170 -751 33 -313 175 -549
396 -655 145 -70 -101 -65 3032 -65 l2831 0 7 97 c10 121 -1 380 -21 533 -50
388 -163 690 -376 1008 -38 57 -150 204 -249 327 -205 255 -291 379 -348 497
-163 339 -140 719 78 1249 l52 125 144 12 c163 13 307 35 571 86 327 64 449
70 537 27 37 -18 55 -38 101 -110 68 -107 186 -223 261 -256 90 -40 165 -49
259 -30 246 50 435 216 536 470 138 351 59 760 -199 1028 -64 67 -158 135
-274 198 -172 93 -331 234 -665 588 -81 86 -195 202 -253 258 -188 182 -358
400 -454 584 -142 273 -176 475 -118 700 33 129 34 188 4 256 -66 149 -270
251 -678 339 -16 3 -33 24 -54 67 -17 34 -61 114 -97 177 -83 146 -118 223
-183 402 -62 171 -88 224 -126 259 -32 30 -52 38 -73 31z"/>
<path d="M9240 14713 c-552 -83 -962 -228 -1368 -485 -164 -103 -291 -207
-468 -383 -257 -256 -431 -498 -607 -847 -334 -660 -527 -1445 -661 -2693 -14
-126 -37 -342 -51 -480 -102 -994 -175 -1367 -322 -1635 -92 -169 -225 -272
-370 -286 -43 -5 -63 -11 -63 -20 0 -18 98 -314 110 -334 13 -21 165 -15 240
10 190 64 341 275 444 620 80 268 122 489 231 1195 107 696 163 1005 251 1385
243 1041 626 1811 1175 2359 424 424 991 738 1592 882 114 27 109 11 53 165
-45 127 -100 342 -117 462 -14 97 -11 94 -69 85z"/>
<path d="M5555 5576 c-65 -21 -105 -45 -163 -100 -107 -99 -185 -249 -234
-444 -19 -74 -22 -115 -22 -277 0 -174 2 -199 27 -298 65 -258 184 -434 345
-510 l67 -32 2970 -3 c2683 -2 2975 -1 3024 14 212 61 376 319 422 662 16 120
6 334 -20 445 -61 254 -192 452 -348 525 l-58 27 -2985 2 c-2388 1 -2993 -1
-3025 -11z"/>
<path d="M5590 3699 c-215 -42 -389 -292 -446 -637 -19 -117 -14 -350 10 -457
61 -278 202 -487 376 -558 l55 -22 2980 0 2980 0 55 22 c112 46 220 160 291
308 231 483 78 1176 -293 1328 l-53 22 -2955 1 c-1661 1 -2975 -2 -3000 -7z"/>
</g>
</svg>
